<mxfile host="app.diagrams.net" modified="2022-09-03T15:27:47.067Z" agent="5.0 (Macintosh; Intel Mac OS X 10_15_7) AppleWebKit/605.1.15 (KHTML, like Gecko) Version/15.4 Safari/605.1.15" etag="pBpu76-FYZ7YzWv2jvmk" version="20.0.3" type="github">
  <diagram id="nJP0g5NtzlGyg-tOw0lX" name="Page-1">
    <mxGraphModel dx="1198" dy="812" grid="0" gridSize="10" guides="1" tooltips="1" connect="1" arrows="1" fold="1" page="1" pageScale="1" pageWidth="1654" pageHeight="2336" background="#F2f2f2" math="0" shadow="0">
      <root>
        <mxCell id="0" />
        <mxCell id="1" parent="0" />
        <mxCell id="0bHwUgwux6Rm_F31SL8b-1" value="Task" style="rounded=1;whiteSpace=wrap;html=1;fontSize=16;fillColor=#dae8fc;strokeColor=#6c8ebf;fontFamily=Comic Sans MS;" vertex="1" parent="1">
          <mxGeometry x="651" y="1507" width="120" height="60" as="geometry" />
        </mxCell>
        <mxCell id="0bHwUgwux6Rm_F31SL8b-2" value="Task" style="rounded=1;whiteSpace=wrap;html=1;fontSize=16;fillColor=#dae8fc;strokeColor=#6c8ebf;fontFamily=Comic Sans MS;" vertex="1" parent="1">
          <mxGeometry x="520" y="1622" width="120" height="60" as="geometry" />
        </mxCell>
        <mxCell id="0bHwUgwux6Rm_F31SL8b-3" value="Task" style="rounded=1;whiteSpace=wrap;html=1;fontSize=16;fillColor=#dae8fc;strokeColor=#6c8ebf;fontFamily=Comic Sans MS;" vertex="1" parent="1">
          <mxGeometry x="827" y="1559" width="120" height="60" as="geometry" />
        </mxCell>
        <mxCell id="0bHwUgwux6Rm_F31SL8b-4" value="Task" style="rounded=1;whiteSpace=wrap;html=1;fontSize=16;fillColor=#dae8fc;strokeColor=#6c8ebf;fontFamily=Comic Sans MS;" vertex="1" parent="1">
          <mxGeometry x="767" y="1743" width="120" height="60" as="geometry" />
        </mxCell>
        <mxCell id="0bHwUgwux6Rm_F31SL8b-5" value="Task" style="rounded=1;whiteSpace=wrap;html=1;fontSize=16;fillColor=#dae8fc;strokeColor=#6c8ebf;fontFamily=Comic Sans MS;" vertex="1" parent="1">
          <mxGeometry x="1027" y="1643" width="120" height="60" as="geometry" />
        </mxCell>
      </root>
    </mxGraphModel>
  </diagram>
</mxfile>
